<svg xmlns="http://www.w3.org/2000/svg" baseProfile="tiny" viewBox="0 0 18 18"><path d="M1.41 7.94c.19.19.4.36.62.51a6.997 6.997 0 0 1 2.38-4.72V7.3c0 .75.48 1.38 1.15 1.61v.3c.35-.07.68-.18 1-.33v-.69l-.66-.23a.709.709 0 0 1-.48-.67V3C6.46 2.37 7.69 2 9 2c.24 0 .47.01.7.04V5c0 .39-.32.71-.71.71L8 5.72v2.16c.31-.31.65-.58 1-.83v-.33c.94-.01 1.7-.77 1.7-1.72V2.22c2.03.51 3.69 1.91 4.58 3.75.45.12.88.28 1.29.47A7.988 7.988 0 0 0 9 1C5.04 1 1.77 3.87 1.12 7.65l.29.29zm15.18 2.12c-.19-.19-.4-.36-.62-.51a6.994 6.994 0 0 1-2.41 4.75v-3.58c0-.95-.77-1.71-1.71-1.71-.06 0-.11.01-.17.02-.45.17-.87.43-1.25.74-.18.27-.29.6-.29.96v.68c-.68.22-1.15.85-1.15 1.59v3a7.004 7.004 0 0 1-6.29-3.98 7.17 7.17 0 0 1-1.27-.47A7.984 7.984 0 0 0 9 17c3.96 0 7.23-2.88 7.88-6.65l-.29-.29zm-4.03 4.96c-.77.46-1.64.77-2.57.9V13c0-.3.19-.57.48-.67l.67-.24v-1.37c0-.39.32-.71.71-.71s.71.32.71.71v4.3z"/><path d="M17.98 8.63c-2.58-2.56-6.76-2.56-9.33.02a5.62 5.62 0 0 1-7.94 0c-.21-.21-.43-.4-.66-.57-.03.3-.05.61-.05.92 0 .12.01.25.02.37a6.567 6.567 0 0 0 4.66 1.92c1.77 0 3.43-.69 4.68-1.94a5.62 5.62 0 0 1 7.94 0c.21.21.43.39.66.57.02-.3.04-.61.04-.92 0-.13-.01-.25-.02-.37z"/></svg>
