<svg xmlns="http://www.w3.org/2000/svg" baseProfile="tiny" viewBox="0 0 18 18"><path d="M6 1c1.95 0 3.73 1.15 4.55 2.93l.44.95.93-.48c.51-.26 1.05-.4 1.58-.4C15.43 4 17 5.57 17 7.5S15.43 11 13.5 11H6c-2.76 0-5-2.24-5-5s2.24-5 5-5m0-1C2.69 0 0 2.69 0 6s2.69 6 6 6h7.5c2.49 0 4.5-2.01 4.5-4.5S15.99 3 13.5 3c-.74 0-1.43.2-2.04.51A6.001 6.001 0 0 0 6 0zm8.08 15l.92-.53c-.09-.33-.26-.63-.49-.87l-.93.53v-1.06c-.16-.04-.33-.07-.5-.07s-.34.03-.5.07v1.06l-.93-.53c-.23.24-.4.54-.49.87l.92.53-.92.53c.09.33.26.63.49.87l.93-.53v1.06c.16.04.33.07.5.07s.34-.03.5-.07v-1.06l.93.53c.23-.24.4-.54.49-.87l-.92-.53zm-8.16 1l.92-.53c-.09-.33-.26-.63-.49-.87l-.93.53v-1.06c-.16-.04-.33-.07-.5-.07s-.34.03-.5.07v1.06l-.93-.53c-.23.24-.4.54-.49.87l.92.53-.92.53c.09.33.26.63.49.87l.93-.53v1.06c.16.04.33.07.5.07s.34-.03.5-.07v-1.06l.93.53c.23-.24.4-.54.49-.87L5.92 16z"/></svg>
