<svg xmlns="http://www.w3.org/2000/svg" baseProfile="tiny" viewBox="0 0 18 18"><path d="M12 3.33c.17 0 .33.03.5.05V1.03a4.193 4.193 0 0 0-1 0v2.36c.17-.03.33-.06.5-.06zm-2.21.76L8.13 2.42c-.26.22-.49.45-.71.71L9.09 4.8c.2-.27.44-.51.7-.71zM15.67 7c0 .17-.03.33-.05.5h2.36c.01-.17.02-.33.02-.5s-.01-.33-.03-.5h-2.36c.03.17.06.33.06.5zm-.76-2.21l1.67-1.67c-.22-.25-.45-.49-.71-.71L14.2 4.08c.27.21.51.45.71.71zM13.5 8c-.74 0-1.43.2-2.04.51A6.001 6.001 0 0 0 0 11c0 3.31 2.69 6 6 6h7.5c2.49 0 4.5-2.01 4.5-4.5S15.99 8 13.5 8z"/><path d="M11.9 7.25c.53-.17 1.06-.25 1.6-.25.51 0 1.01.08 1.48.21 0-.07.02-.14.02-.21 0-1.66-1.34-3-3-3-.92 0-1.74.43-2.29 1.09.87.54 1.63 1.27 2.19 2.16z"/></svg>
