<svg xmlns="http://www.w3.org/2000/svg" baseProfile="tiny" viewBox="0 0 18 18"><path d="M12.5 3.38V1.03a4.193 4.193 0 0 0-1 0v2.36c.17-.02.33-.05.5-.05s.33.02.5.04zm-2.71.71L8.13 2.42c-.26.22-.49.45-.71.71L9.09 4.8c.2-.27.44-.51.7-.71zM15.67 7c0 .17-.03.33-.05.5h2.36c.01-.17.02-.33.02-.5s-.01-.33-.03-.5h-2.36c.03.17.06.33.06.5zm.91-3.87c-.22-.25-.45-.49-.71-.71L14.2 4.09c.27.2.5.44.71.71l1.67-1.67z"/><path d="M14.75 8.2A2.996 2.996 0 1 0 9.2 5.94C8.28 5.35 7.18 5 6 5c-3.31 0-6 2.69-6 6s2.69 6 6 6h7.5c2.49 0 4.5-2.01 4.5-4.5 0-2.05-1.38-3.76-3.25-4.3zM12 5c1.1 0 2 .9 2 2 0 .37-.11.72-.29 1.02-.07 0-.14-.02-.21-.02-.74 0-1.43.2-2.04.51-.34-.74-.82-1.39-1.41-1.93.19-.9.99-1.58 1.95-1.58zm1.5 11H6c-2.76 0-5-2.24-5-5s2.24-5 5-5c1.95 0 3.73 1.15 4.55 2.93l.44.95.93-.48c.51-.26 1.05-.4 1.58-.4 1.93 0 3.5 1.57 3.5 3.5S15.43 16 13.5 16z"/></svg>
