<svg xmlns="http://www.w3.org/2000/svg" baseProfile="tiny" viewBox="0 0 18 18"><path d="M15.75 9.76c-2.76 0-5-2.24-5-5V3H12L9 0 6 3h1.25v1.76c0 2.76-2.24 5-5 5H0v4.22A4.98 4.98 0 0 0 3 15c1.09 0 2.14-.36 3-1.02a4.92 4.92 0 0 0 6 0A4.92 4.92 0 0 0 15 15c1.13 0 2.16-.39 3-1.03V9.76h-2.25zM15 14c-1.2 0-2.27-.54-3-1.38-.73.84-1.8 1.38-3 1.38s-2.27-.54-3-1.38C5.27 13.46 4.2 14 3 14c-.74 0-1.41-.22-2-.57v-2.67h1.25c3.31 0 6-2.69 6-6v-2.6L9 1.41l.75.75v2.59c0 3.31 2.69 6 6 6H17v2.67c-.59.36-1.26.58-2 .58zm-3 1.62c-.73.84-1.8 1.38-3 1.38s-2.27-.54-3-1.38C5.27 16.46 4.2 17 3 17s-2.27-.54-3-1.38v1.35C.84 17.61 1.87 18 3 18c1.09 0 2.14-.36 3-1.02a4.92 4.92 0 0 0 6 0A4.92 4.92 0 0 0 15 18c1.13 0 2.16-.39 3-1.03v-1.35c-.73.84-1.8 1.38-3 1.38s-2.27-.54-3-1.38z"/></svg>
