<svg xmlns="http://www.w3.org/2000/svg" baseProfile="tiny" viewBox="0 0 18 18"><path d="M17.59 13.69L15.56 10h-.12l-2.03 3.69c-.26.44-.41.97-.41 1.53 0 1.53 1.12 2.78 2.5 2.78s2.5-1.24 2.5-2.78c0-.56-.15-1.09-.41-1.53zm-3.27 2.84c-.65-.72-.65-1.9 0-2.62l2.36 2.62c-.65.73-1.71.73-2.36 0zM2.5 0C1.12 0 0 1.24 0 2.78c0 .57.15 1.09.41 1.53L2.44 8h.12l2.03-3.69c.26-.44.41-.97.41-1.53C5 1.24 3.88 0 2.5 0zm0 4.63C1.58 4.63.83 3.8.83 2.78S1.58.93 2.5.93c.92 0 1.67.83 1.67 1.85S3.42 4.63 2.5 4.63zm8.74 5.91L7.71 7.01H9v-1H6v3h1v-1.3l3.54 3.54h-1.3v1h3v-3h-1z"/></svg>
