<svg xmlns="http://www.w3.org/2000/svg" baseProfile="tiny" viewBox="0 0 18 18"><path d="M9.5 16V3c0-1.1.9-2 2-2s2 .9 2 2h1c0-1.66-1.34-3-3-3s-3 1.34-3 3v1.78C7.97 4.3 7.27 4 6.5 4c-1.66 0-3 1.34-3 3h1c0-1.1.9-2 2-2s2 .9 2 2v9H0v2h18v-2H9.5z"/><path d="M14.25 3.66c1.04 1.31 1.32 3 .83 4.52.19-1.3-.23-2.67-1.25-3.67-.05-.05-.1-.09-.16-.14-1.09 1.67-.9 3.9.57 5.36l.03.03c.05.05.1.09.16.14.03.02.05.05.08.07a4.875 4.875 0 0 0 .23-6.74c-.08-.09-.16-.18-.24-.26l-.46.45.21.24zM3.49 14.01c.03-.02.05-.05.08-.07.05-.05.11-.09.16-.14l.03-.03c1.47-1.47 1.66-3.7.57-5.36-.06.04-.11.08-.16.13-1.02 1-1.44 2.37-1.25 3.67-.48-1.51-.2-3.21.83-4.52.07-.08.13-.16.21-.24l-.46-.44c-.09.08-.17.17-.24.26a4.876 4.876 0 0 0 .23 6.74z"/></svg>
