<svg xmlns="http://www.w3.org/2000/svg" baseProfile="tiny" viewBox="0 0 18 18"><path d="M11.2 13.46c-.67.34-1.41.54-2.2.54-2.76 0-5-2.24-5-5 0-.79.2-1.53.54-2.2L2.96 5.23C1.74 6.23.71 7.5 0 9c1.7 3.57 5.09 6 9 6 1.11 0 2.17-.2 3.17-.56l-.97-.98z"/><path d="M9 13c.51 0 1-.11 1.44-.29l-4-4C6 8.89 5.51 9 5 9c0 2.21 1.79 4 4 4zm9-4c-1.7-3.57-5.09-6-9-6-1.47 0-2.87.35-4.14.97L1.39.5l-.89.89 3.23 3.23 1.33 1.33 2.28 2.28 4 4 .71.71 1.09 1.09 3.47 3.47.89-.89-3.23-3.23C15.84 12.32 17.14 10.8 18 9zm-5.06 3.05l-.71-.71c.48-.66.77-1.46.77-2.34 0-2.21-1.79-4-4-4 0 .88-.29 1.68-.77 2.34L5.95 5.06C6.8 4.41 7.85 4 9 4c2.76 0 5 2.24 5 5 0 1.15-.41 2.2-1.06 3.05z"/></svg>
