<svg xmlns="http://www.w3.org/2000/svg" baseProfile="tiny" viewBox="0 0 18 18"><path d="M12 15.62c-.73.84-1.8 1.38-3 1.38s-2.27-.54-3-1.38C5.27 16.46 4.2 17 3 17s-2.27-.54-3-1.38v1.35C.84 17.61 1.87 18 3 18c1.09 0 2.14-.36 3-1.02a4.92 4.92 0 0 0 6 0A4.92 4.92 0 0 0 15 18c1.13 0 2.16-.39 3-1.03v-1.35c-.73.84-1.8 1.38-3 1.38s-2.27-.54-3-1.38zM15 13c-.12 0-.23-.03-.34-.04V7.17H16v-.18L9 0 2 6.99v.18h1.34v5.79c-.11.01-.22.04-.34.04-1.2 0-2.27-.54-3-1.38v1.35C.84 13.61 1.87 14 3 14c1.09 0 2.14-.36 3-1.02a4.92 4.92 0 0 0 6 0A4.92 4.92 0 0 0 15 14c1.13 0 2.16-.39 3-1.03v-1.35c-.73.84-1.8 1.38-3 1.38zm-7.63-.36v-3.3h3.26v3.3c-.5.23-1.05.36-1.63.36s-1.13-.13-1.63-.36z"/></svg>
