<svg xmlns="http://www.w3.org/2000/svg" baseProfile="tiny" viewBox="0 0 18 18"><path d="M12 13.62c-.73.84-1.8 1.38-3 1.38s-2.27-.54-3-1.38C5.27 14.46 4.2 15 3 15s-2.27-.54-3-1.38v1.35C.84 15.61 1.87 16 3 16c1.09 0 2.14-.36 3-1.02a4.92 4.92 0 0 0 6 0A4.92 4.92 0 0 0 15 16c1.13 0 2.16-.39 3-1.03v-1.35c-.73.84-1.8 1.38-3 1.38s-2.27-.54-3-1.38zM18 2H0v3.99c.55 0 1 .45 1 1s-.45 1-1 1v2.98C.84 11.61 1.87 12 3 12c1.09 0 2.14-.36 3-1.02a4.92 4.92 0 0 0 6 0A4.92 4.92 0 0 0 15 12c1.13 0 2.16-.39 3-1.03V2zm0 3.99v2c-.55 0-1-.45-1-1s.45-1 1-1zm-3-1.46c.55 0 1 .45 1 1s-.45 1-1 1-1-.45-1-1 .45-1 1-1zm0 2.98c.55 0 1 .45 1 1s-.45 1-1 1-1-.45-1-1 .45-1 1-1zm-3-1.52c.55 0 1 .45 1 1s-.45 1-1 1-1-.45-1-1 .45-1 1-1zM9 4.53c.55 0 1 .45 1 1s-.45 1-1 1-1-.45-1-1 .45-1 1-1zm0 2.98c.55 0 1 .45 1 1s-.45 1-1 1-1-.45-1-1 .45-1 1-1zM6 5.99c.55 0 1 .45 1 1s-.45 1-1 1-1-.45-1-1 .45-1 1-1zM3 4.53c.55 0 1 .45 1 1s-.45 1-1 1-1-.45-1-1 .45-1 1-1zm0 2.98c.55 0 1 .45 1 1s-.45 1-1 1-1-.45-1-1 .45-1 1-1z"/></svg>
