<svg xmlns="http://www.w3.org/2000/svg" baseProfile="tiny" viewBox="0 0 18 18" overflow="visible"><path d="M14.5 1h-11a.5.5 0 0 1 0-1h11a.5.5 0 0 1 0 1zm1.501 2H1.999a.5.5 0 0 1-.499-.499v-.002A.5.5 0 0 1 1.999 2h14.002a.5.5 0 0 1 .499.499v.002a.5.5 0 0 1-.499.499zm-9.04 9.667h3.333l.739-3.334H7.7z"/><path d="M0 4v14h18V4H0zm14 4.789c0 .3-.244.544-.544.539h-1.311l-.739 3.333h2.05c.3 0 .544.244.544.544v.028c0 .3-.244.544-.544.544h-2.294l-.4 1.8a.54.54 0 1 1-1.055-.239l.344-1.561H6.717l-.4 1.8a.54.54 0 1 1-1.055-.239l.344-1.561h-1.05a.556.556 0 1 1 0-1.11h1.3l.739-3.333h-2.05A.545.545 0 0 1 4 8.795v-.028c0-.3.244-.544.544-.544h2.294l.4-1.8a.548.548 0 0 1 .654-.409.54.54 0 0 1 .403.647L7.95 8.222h3.333l.4-1.8a.54.54 0 1 1 1.055.239l-.344 1.561h1.061c.3 0 .544.244.544.544v.023z"/></svg>
