<svg xmlns="http://www.w3.org/2000/svg" baseProfile="tiny" viewBox="0 0 18 18" overflow="visible"><path d="M14.995 6.347V6.32a.654.654 0 0 0-.653-.653h-1.273l.413-1.873a.65.65 0 1 0-1.267-.287l-.48 2.16h-4l.413-1.873A.647.647 0 0 0 7.515 3c-.3 0-.567.213-.633.507l-.48 2.16H3.648a.654.654 0 0 0-.653.653v.033c0 .354.293.647.653.647h2.46l-.887 4h-1.56c-.367 0-.667.3-.667.667s.3.667.667.667h1.26l-.413 1.873a.65.65 0 1 0 1.267.287l.48-2.16h4l-.413 1.873a.65.65 0 1 0 1.267.287l.48-2.16h2.753c.36 0 .653-.293.653-.653v-.033a.654.654 0 0 0-.653-.653h-2.46l.887-4h1.573a.646.646 0 0 0 .653-.648zM10.548 11h-4l.887-4h4l-.887 4z"/><path d="M16.995 1v16h-16V1h16m1-1h-18v18h18V0z"/></svg>
