<svg xmlns="http://www.w3.org/2000/svg" baseProfile="tiny" viewBox="0 0 18 18"><path d="M15.26 5C16.22 5 17 4.22 17 3.26c0-.35-.11-.68-.29-.96L15.31 0h-.08l-1.41 2.31A1.73 1.73 0 0 0 15.26 5zm-.82-2.55l1.64 1.64c-.45.45-1.19.45-1.64 0s-.45-1.19 0-1.64zM9 6c.96 0 1.74-.78 1.74-1.74 0-.35-.11-.68-.29-.96L9.04 1h-.08L7.55 3.31c-.18.27-.29.6-.29.96C7.26 5.22 8.04 6 9 6zm-.82-2.55l1.64 1.64c-.45.45-1.19.45-1.64 0s-.45-1.19 0-1.64zM2.74 8c.96 0 1.73-.78 1.73-1.74 0-.35-.11-.68-.29-.96L2.78 3h-.09l-1.4 2.31c-.19.27-.29.6-.29.95C1 7.22 1.78 8 2.74 8zm-.82-2.55l1.64 1.64c-.45.45-1.19.45-1.64 0s-.45-1.19 0-1.64zm6.42 10.91c.4-3.31 2.45-6.11 5.28-7.6-2.12 1.6-3.64 4.15-3.47 7.39 3.89-.86 7.19-4.55 6.82-9.15C11.52 7 7 11.39 7 17H1v1h16v-1H8.28s-.01-.06.06-.64z"/></svg>
