<svg xmlns="http://www.w3.org/2000/svg" baseProfile="tiny" viewBox="0 0 18 18"><path d="M17.97 8.5C17.71 3.76 13.8 0 9 0S.29 3.76.03 8.5H0v1h.03C.29 14.24 4.2 18 9 18s8.71-3.76 8.97-8.5H18v-1h-.03zM9 1c1.78 0 3.42.59 4.74 1.57-.03.03-.06.06-.1.08-1.31.94-2.91 1.5-4.65 1.5s-3.33-.56-4.65-1.5l-.08-.08A7.93 7.93 0 0 1 9 1zM3.47 3.23c.03.03.06.06.09.08C5.07 4.46 6.95 5.15 9 5.15s3.93-.69 5.44-1.85c.03-.02.06-.05.09-.07 1.4 1.35 2.31 3.2 2.44 5.27H1.03a7.973 7.973 0 0 1 2.44-5.27zM9 17a7.93 7.93 0 0 1-4.74-1.57c.03-.03.06-.06.1-.08 1.31-.94 2.91-1.5 4.65-1.5s3.33.56 4.65 1.5c.03.02.06.06.1.08A8.036 8.036 0 0 1 9 17zm5.53-2.23c-.03-.02-.06-.05-.09-.07-1.51-1.15-3.4-1.85-5.44-1.85s-3.93.69-5.44 1.85c-.03.02-.06.05-.09.07A7.998 7.998 0 0 1 1.03 9.5h15.95a8.03 8.03 0 0 1-2.45 5.27z"/></svg>
