<svg xmlns="http://www.w3.org/2000/svg" baseProfile="tiny" viewBox="0 0 18 18"><path d="M9 0a9 9 0 1 0 .001 18.001A9 9 0 0 0 9 0zM1 9c0-3.09 1.75-5.75 4.32-7.08C4.48 4.12 4 6.5 4 9s.48 4.88 1.32 7.08C2.75 14.75 1 12.09 1 9zm7.5 7.97c-.66-.04-1.29-.17-1.9-.36C5.58 14.28 5 11.71 5 9s.58-5.28 1.6-7.61c.61-.19 1.24-.32 1.9-.36v15.94zm1 0V1.03c.66.04 1.29.17 1.9.36C12.42 3.72 13 6.29 13 9s-.58 5.28-1.6 7.61c-.61.19-1.24.32-1.9.36zm3.18-.89C13.52 13.88 14 11.5 14 9s-.48-4.88-1.32-7.08C15.25 3.25 17 5.91 17 9s-1.75 5.75-4.32 7.08z"/></svg>
