<svg xmlns="http://www.w3.org/2000/svg" baseProfile="tiny" viewBox="0 0 18 18"><path d="M14.75 7.2A2.996 2.996 0 1 0 9.2 4.94C8.28 4.35 7.18 4 6 4c-3.31 0-6 2.69-6 6a5.97 5.97 0 0 0 2.97 5.17c.21-.28.43-.55.67-.79C2.07 13.53 1 11.9 1 10c0-2.76 2.24-5 5-5 1.95 0 3.73 1.15 4.55 2.93l.44.95.93-.48c.51-.26 1.05-.4 1.58-.4 1.93 0 3.5 1.57 3.5 3.5 0 1.5-.95 2.77-2.28 3.27.22.26.42.54.61.84C16.9 14.9 18 13.33 18 11.5c0-2.05-1.38-3.76-3.25-4.3zm-1.04-.18c-.07 0-.14-.02-.21-.02-.74 0-1.43.2-2.04.51-.34-.74-.82-1.39-1.41-1.93.19-.9.99-1.58 1.95-1.58 1.1 0 2 .9 2 2 0 .37-.11.72-.29 1.02zM11.84 0h1v2h-1zM16 4h2v1h-2zm-1.721-1.648L15.693.938l.707.707-1.414 1.414zm-6-.707l.707-.707L10.4 2.352l-.707.707z"/><path d="M6.54 11h-.08l-1.22 2.31c-.15.27-.24.6-.24.95 0 .96.67 1.74 1.5 1.74S8 15.22 8 14.26c0-.35-.09-.68-.25-.96L6.54 11zm-.75 4.08c-.39-.45-.39-1.18 0-1.64l1.41 1.64c-.38.45-1.02.45-1.41 0zM12.54 13h-.07l-1.22 2.31c-.16.27-.25.6-.25.96 0 .96.67 1.74 1.5 1.74s1.5-.78 1.5-1.74c0-.35-.09-.68-.25-.96L12.54 13zm-.75 4.08c-.39-.45-.39-1.18 0-1.64l1.41 1.64c-.38.45-1.02.45-1.41 0z"/></svg>
