<svg xmlns="http://www.w3.org/2000/svg" baseProfile="tiny" viewBox="0 0 18 18"><path d="M15.6 2.4V0h-1.2v2.4H12v1.2h2.4V6h1.2V3.6H18V2.4zM12 15.62c-.73.84-1.8 1.38-3 1.38s-2.27-.54-3-1.38C5.27 16.46 4.2 17 3 17s-2.27-.54-3-1.38v1.35C.84 17.61 1.87 18 3 18c1.09 0 2.14-.36 3-1.02a4.92 4.92 0 0 0 6 0A4.92 4.92 0 0 0 15 18c1.13 0 2.16-.39 3-1.03v-1.35c-.73.84-1.8 1.38-3 1.38s-2.27-.54-3-1.38zm0-4c-.73.84-1.8 1.38-3 1.38s-2.27-.54-3-1.38C5.27 12.46 4.2 13 3 13s-2.27-.54-3-1.38v1.35C.84 13.61 1.87 14 3 14c1.09 0 2.14-.36 3-1.02a4.92 4.92 0 0 0 6 0A4.92 4.92 0 0 0 15 14c1.13 0 2.16-.39 3-1.03v-1.35c-.73.84-1.8 1.38-3 1.38s-2.27-.54-3-1.38zM2.78 11c1.38 0 2.5-1.24 2.5-2.78 0-.56-.15-1.09-.41-1.53L2.84 3h-.12L.69 6.69c-.26.44-.41.97-.41 1.53C.28 9.76 1.4 11 2.78 11zM1.6 6.91l2.36 2.62c-.65.72-1.71.72-2.36 0-.65-.72-.65-1.89 0-2.62z"/></svg>
