<svg xmlns="http://www.w3.org/2000/svg" baseProfile="tiny" viewBox="0 0 18 18"><path d="M6.48 11.97c-.51 0-.92-.19-1.21-.56h-.06c.04.36.06.58.06.63v1.77H4.08V7.53h.97l.17.57h.05c.28-.43.69-.65 1.24-.65.52 0 .92.2 1.21.6s.44.94.44 1.65c0 .47-.07.87-.21 1.21s-.33.61-.58.79-.55.27-.89.27zM6.13 8.4c-.29 0-.51.09-.64.27s-.21.48-.21.9v.13c0 .47.07.8.21 1.01s.36.3.66.3c.53 0 .8-.44.8-1.32 0-.43-.07-.75-.2-.97s-.34-.32-.62-.32zm7.79 3.49h-1.21V9.43h-2.26v2.46H9.24V6.18h1.21v2.24h2.26V6.18h1.21v5.71z"/><path d="M9 1c4.41 0 8 3.59 8 8s-3.59 8-8 8-8-3.59-8-8 3.59-8 8-8m0-1a9 9 0 1 0 .001 18.001A9 9 0 0 0 9 0z"/></svg>
