<svg xmlns="http://www.w3.org/2000/svg" baseProfile="tiny" viewBox="0 0 18 18"><path d="M7.43 8.8c.58.41 1.27.63 2 .63s1.42-.22 2-.63c.58.41 1.26.63 1.99.63 1.39.68 2.94 1.07 4.58 1.07v-1a9.59 9.59 0 0 1-2.95-.47c-.5-.16-.99-.37-1.45-.61a9.577 9.577 0 0 1-4.03-4.04c-.16-.31-.3-.63-.43-.96A9.531 9.531 0 0 1 8.5 0h-1c0 1.13.18 2.22.52 3.24-.43-.17-.8-.45-1.08-.82a2.5 2.5 0 0 1-2 1.01 2.5 2.5 0 0 1-2-1.01c-.38.51-.95.86-1.6.97C1.12 2.29 1 1.16 1 0H0a17.537 17.537 0 0 0 .57 4.4c.35 1.38.85 2.7 1.5 3.94.16.3.34.6.51.89.93 1.55 2.09 2.95 3.43 4.15.3.27.6.53.92.78C9.99 16.56 13.82 18 18 18v-1c-3.33 0-6.42-.97-9.05-2.63.21.04.43.07.65.07.73 0 1.42-.22 2-.63.58.41 1.27.63 2 .63s1.42-.22 2-.63c.58.41 1.27.63 2 .63.13 0 .27-.02.4-.03v-1.02c-.13.02-.26.05-.4.05a2.5 2.5 0 0 1-2-1.01 2.5 2.5 0 0 1-2 1.01 2.5 2.5 0 0 1-2-1.01 2.5 2.5 0 0 1-2 1.01 2.5 2.5 0 0 1-2-1.01c-.16.21-.36.39-.58.54a17.079 17.079 0 0 1-3.51-4.11c.56.37 1.22.58 1.91.58.74-.01 1.43-.23 2.01-.64zm-4-1.38c-.14.18-.3.33-.47.47-.59-1.1-1.04-2.29-1.37-3.52.49-.09.95-.28 1.35-.57.58.41 1.27.63 2 .63s1.42-.22 2-.63c.45.32.98.52 1.54.6a10.5 10.5 0 0 0 2.56 3.44c-.43.37-.99.6-1.61.6a2.5 2.5 0 0 1-2-1.01 2.5 2.5 0 0 1-2 1.01c-.82-.01-1.55-.41-2-1.02z"/></svg>
