<svg xmlns="http://www.w3.org/2000/svg" baseProfile="tiny" viewBox="0 0 18 18"><path d="M4.57 13.24A5.765 5.765 0 0 0 8.71 15c3.24 0 5.86-2.69 5.86-6s-2.62-6-5.86-6c-1.61 0-3.08.67-4.14 1.76l.69.71C6.15 4.56 7.37 4 8.71 4c2.69 0 4.88 2.24 4.88 5s-2.19 5-4.88 5a4.78 4.78 0 0 1-3.45-1.47l-.69.71z"/><path d="M8.71 0C6.29 0 4.09 1.01 2.5 2.64l.69.71C4.61 1.9 6.56 1 8.71 1c4.31 0 7.81 3.59 7.81 8s-3.5 8-7.81 8c-2.15 0-4.11-.9-5.52-2.35l-.69.71C4.09 16.99 6.29 18 8.71 18c4.85 0 8.79-4.03 8.79-9s-3.93-9-8.79-9z"/><path d="M6.5 6.5h4v5h-4zm-2 4.6c0-.48-.19-.91-.5-1.25V6.43C4 5.64 3.33 5 2.5 5S1 5.64 1 6.43v3.42c-.31.33-.5.77-.5 1.25 0 1.05.9 1.9 2 1.9s2-.85 2-1.9zM2 6.43c0-.26.22-.48.5-.48s.5.22.5.48v1.73H2V6.43z"/></svg>
