<svg xmlns="http://www.w3.org/2000/svg" baseProfile="tiny" viewBox="0 0 18 18"><path d="M5.07 13.24A5.765 5.765 0 0 0 9.21 15c3.24 0 5.86-2.69 5.86-6s-2.62-6-5.86-6c-1.61 0-3.08.67-4.14 1.76l.69.71C6.65 4.56 7.87 4 9.21 4c2.69 0 4.88 2.24 4.88 5s-2.19 5-4.88 5a4.78 4.78 0 0 1-3.45-1.47l-.69.71z"/><path d="M9.21 0C6.79 0 4.59 1.01 3 2.64l.69.71C5.11 1.9 7.06 1 9.21 1c4.31 0 7.81 3.59 7.81 8s-3.5 8-7.81 8c-2.15 0-4.11-.9-5.52-2.35l-.69.71C4.59 16.99 6.79 18 9.21 18 14.07 18 18 13.97 18 9s-3.93-9-8.79-9z"/><path d="M7 6.5h4v5H7zM2 11L.5 12.6h.75v1.6c0 .44.34.8.75.8s.75-.36.75-.8v-1.6h.75L2 11zm1.5-5.6h-.75V3.8c0-.44-.34-.8-.75-.8s-.75.36-.75.8v1.6H.5L2 7l1.5-1.6zM0 8h4v2H0z"/></svg>
