<svg xmlns="http://www.w3.org/2000/svg" baseProfile="tiny" viewBox="0 0 18 18"><path d="M4.57 13.24A5.765 5.765 0 0 0 8.71 15c3.24 0 5.86-2.69 5.86-6s-2.62-6-5.86-6c-1.61 0-3.08.67-4.14 1.76l.69.71C6.15 4.56 7.37 4 8.71 4c2.69 0 4.88 2.24 4.88 5s-2.19 5-4.88 5a4.78 4.78 0 0 1-3.45-1.47l-.69.71z"/><path d="M8.71 0C6.29 0 4.09 1.01 2.5 2.64l.69.71C4.61 1.9 6.56 1 8.71 1c4.31 0 7.81 3.59 7.81 8s-3.5 8-7.81 8c-2.15 0-4.11-.9-5.52-2.35l-.69.71C4.09 16.99 6.29 18 8.71 18c4.85 0 8.79-4.03 8.79-9s-3.93-9-8.79-9z"/><path d="M4.05 11.05c.15-.16.24-.25.45-.25v-.86c-.46 0-.71.26-.89.45-.15.16-.24.25-.45.25s-.3-.09-.45-.25c-.17-.19-.42-.45-.88-.45s-.7.26-.89.45c-.15.16-.24.25-.45.25v.86c.46 0 .7-.26.89-.45.15-.16.24-.25.45-.25.21 0 .3.09.45.25.18.19.43.45.89.45s.7-.26.88-.45zM1.39 9.33c.15-.16.24-.25.45-.25.21 0 .3.09.45.25.18.19.43.45.89.45s.71-.26.89-.45c.13-.16.22-.25.43-.25v-.86c-.46 0-.71.26-.89.45-.14.16-.23.25-.44.25s-.3-.09-.45-.25c-.18-.19-.43-.45-.88-.45-.46 0-.7.26-.89.45-.15.16-.24.25-.44.25v.86c.45 0 .7-.26.88-.45zm0-1.72c.15-.16.24-.25.45-.25.21 0 .3.09.45.25.17.19.42.45.88.45s.7-.26.88-.45c.15-.15.24-.25.45-.25V6.5c-.46 0-.71.26-.89.45-.14.16-.23.25-.44.25s-.3-.09-.45-.25c-.18-.19-.43-.45-.88-.45-.46 0-.7.26-.89.45-.15.16-.24.25-.44.25v.86c.45 0 .7-.26.88-.45zM6.5 6.5h4v5h-4z"/></svg>
