<svg xmlns="http://www.w3.org/2000/svg" baseProfile="tiny" viewBox="0 0 18 18"><path d="M4.57 13.24A5.765 5.765 0 0 0 8.71 15c3.24 0 5.86-2.69 5.86-6s-2.62-6-5.86-6c-1.61 0-3.08.67-4.14 1.76l.69.71C6.15 4.56 7.37 4 8.71 4c2.69 0 4.88 2.24 4.88 5s-2.19 5-4.88 5a4.78 4.78 0 0 1-3.45-1.47l-.69.71z"/><path d="M8.71 0C6.29 0 4.09 1.01 2.5 2.64l.69.71C4.61 1.9 6.56 1 8.71 1c4.31 0 7.81 3.59 7.81 8s-3.5 8-7.81 8c-2.15 0-4.11-.9-5.52-2.35l-.69.71C4.09 16.99 6.29 18 8.71 18c4.85 0 8.79-4.03 8.79-9s-3.93-9-8.79-9z"/><path d="M6.5 6.5h4v5h-4zM1.91 8.08c.39 0 .77-.12 1.09-.35a1.86 1.86 0 0 0 2.5-.3l-.65-.57c-.21.23-.48.36-.76.36s-.55-.13-.76-.36L3 6.5l-.33.36c-.2.23-.47.36-.76.36-.28 0-.55-.13-.76-.36l-.65.57c.37.42.88.65 1.41.65zm0 1.71c.39 0 .77-.12 1.09-.35a1.86 1.86 0 0 0 2.5-.3l-.65-.56c-.21.23-.48.35-.76.35s-.55-.13-.76-.36L3 8.21l-.33.37c-.2.23-.47.35-.76.35-.28 0-.55-.13-.76-.36l-.65.57c.37.42.88.65 1.41.65zm2.18 1.71c.54 0 1.04-.23 1.41-.65l-.65-.57c-.21.23-.48.36-.76.36s-.55-.13-.76-.36L3 9.92l-.33.36c-.21.23-.48.36-.76.36s-.55-.13-.76-.36l-.65.57c.37.42.88.65 1.41.65.39 0 .77-.12 1.09-.35.32.23.69.35 1.09.35z"/></svg>
