<svg xmlns="http://www.w3.org/2000/svg" baseProfile="tiny" viewBox="0 0 18 18"><path d="M0 17h18v-3.03c-.55 0-1-.45-1-1s.45-1 1-1V9H0v8zm15-6.49c.55 0 1 .45 1 1s-.45 1-1 1-1-.45-1-1 .45-1 1-1zm0 2.98c.55 0 1 .45 1 1s-.45 1-1 1-1-.45-1-1 .45-1 1-1zm-2.99-1.52c.55 0 1 .45 1 1s-.45 1-1 1-1-.45-1-1 .45-1 1-1zM9 10.51c.55 0 1 .45 1 1s-.45 1-1 1-1-.45-1-1 .45-1 1-1zm0 2.98c.55 0 1 .45 1 1s-.45 1-1 1-1-.45-1-1 .45-1 1-1zm-2.99-1.52c.55 0 1 .45 1 1s-.45 1-1 1-1-.45-1-1 .45-1 1-1zM3 10.51c.55 0 1 .45 1 1s-.45 1-1 1-1-.45-1-1 .45-1 1-1zm0 2.98c.55 0 1 .45 1 1s-.45 1-1 1-1-.45-1-1 .45-1 1-1zm-3-1.52c.55 0 1 .45 1 1s-.45 1-1 1v-2zM12 5c-.73.84-1.8 1.38-3 1.38S6.73 5.84 6 5c-.73.84-1.8 1.38-3 1.38S.73 5.84 0 5v1.35c.84.63 1.87 1.03 3 1.03 1.09 0 2.14-.36 3-1.02a4.92 4.92 0 0 0 6 0 4.92 4.92 0 0 0 3 1.02c1.13 0 2.16-.39 3-1.03V5c-.73.84-1.8 1.38-3 1.38S12.73 5.84 12 5zm3-2.62c-1.2 0-2.27-.54-3-1.38-.73.84-1.8 1.38-3 1.38S6.73 1.84 6 1c-.73.84-1.8 1.38-3 1.38S.73 1.84 0 1v1.35c.84.63 1.87 1.03 3 1.03 1.09 0 2.14-.36 3-1.02a4.92 4.92 0 0 0 6 0 4.92 4.92 0 0 0 3 1.02c1.13 0 2.16-.39 3-1.03V1c-.73.84-1.8 1.38-3 1.38z"/></svg>
