<svg xmlns="http://www.w3.org/2000/svg" baseProfile="tiny" viewBox="0 0 18 18"><path d="M15.36 5.74c.01.14.01.28.01.43 0 4.34-3.3 9.33-9.33 9.33A9.33 9.33 0 0 1 1 14.03c.26.03.52.04.79.04 1.53 0 2.94-.52 4.07-1.4a3.29 3.29 0 0 1-3.07-2.27c.2.03.41.05.62.05.29 0 .59-.04.86-.11-1.5-.3-2.63-1.62-2.63-3.22v-.05c.44.24.94.4 1.48.42-.87-.59-1.45-1.6-1.45-2.74 0-.61.16-1.17.45-1.66a9.302 9.302 0 0 0 6.76 3.43 3.57 3.57 0 0 1-.08-.74c0-1.81 1.46-3.28 3.28-3.28.94 0 1.8.4 2.4 1.04.74-.14 1.45-.42 2.08-.79-.24.76-.76 1.4-1.44 1.81.66-.07 1.3-.25 1.89-.51a7.78 7.78 0 0 1-1.65 1.69z"/></svg>
