<svg xmlns="http://www.w3.org/2000/svg" baseProfile="tiny" viewBox="0 0 18 18"><path d="M12 14.62c-.73.84-1.8 1.38-3 1.38s-2.27-.54-3-1.38C5.27 15.46 4.2 16 3 16s-2.27-.54-3-1.38v1.35C.84 16.61 1.87 17 3 17c1.09 0 2.14-.36 3-1.02a4.92 4.92 0 0 0 6 0A4.92 4.92 0 0 0 15 17c1.13 0 2.16-.39 3-1.03v-1.35c-.73.84-1.8 1.38-3 1.38s-2.27-.54-3-1.38zM15 12c-1.2 0-2.27-.54-3-1.38-.73.84-1.8 1.38-3 1.38s-2.27-.54-3-1.38C5.27 11.46 4.2 12 3 12s-2.27-.54-3-1.38v1.35C.84 12.61 1.87 13 3 13c1.09 0 2.14-.36 3-1.02a4.92 4.92 0 0 0 6 0A4.92 4.92 0 0 0 15 13c1.13 0 2.16-.39 3-1.03v-1.35c-.73.84-1.8 1.38-3 1.38zM9 9c1.38 0 2.5-1.24 2.5-2.78 0-.56-.15-1.09-.41-1.53L9.06 1h-.12L6.91 4.69c-.26.44-.41.97-.41 1.53C6.5 7.76 7.62 9 9 9zM7.82 4.91l2.36 2.62c-.65.72-1.71.72-2.36 0s-.65-1.89 0-2.62z"/></svg>
