<?xml version="1.0" standalone="no"?>
<svg version="1.0" xmlns="http://www.w3.org/2000/svg"
 width="48.000000pt" height="48.000000pt" viewBox="0 0 48.000000 48.000000"
 preserveAspectRatio="xMidYMid meet">

<g transform="translate(0.000000,48.000000) scale(0.100000,-0.100000)"
fill="#0056A0" stroke="none">
<path d="M0 240 l0 -240 240 0 240 0 0 240 0 240 -240 0 -240 0 0 -240z m302
159 c24 -25 28 -38 28 -84 0 -46 -5 -60 -28 -87 -40 -43 -84 -43 -124 0 -52
60 -32 175 36 202 30 12 57 3 88 -31z m-92 -251 l30 -22 30 22 c34 25 33 25
83 11 30 -8 42 -18 53 -44 28 -67 33 -65 -166 -65 -165 0 -180 1 -180 18 1 39
26 76 60 88 49 18 57 17 90 -8z"/>
</g>
</svg>
