<?xml version="1.0" encoding="utf-8"?>
<!-- Generator: Adobe Illustrator 27.3.1, SVG Export Plug-In . SVG Version: 6.00 Build 0)  -->
<svg version="1.1" id="Ebene_1" xmlns="http://www.w3.org/2000/svg" xmlns:xlink="http://www.w3.org/1999/xlink" x="0px" y="0px"
	 viewBox="0 0 413.9 62.4" style="enable-background:new 0 0 413.9 62.4;" xml:space="preserve">
<style type="text/css">
	.st0{fill:#1979CE;}
</style>
<g>
	<g>
		<path id="Pfad_30_00000047032371262762576950000005726884620975632262_" class="st0" d="M37.3,2.7h17.4L19.3,48.4H2L37.3,2.7z"/>
		<path id="Pfad_32_00000070118780173317505910000007336741407199981727_" class="st0" d="M58.6,2.7H76L58.5,25.3l17.9,23.1H59
			L41.1,25.3L58.6,2.7z"/>
	</g>
	<g>
		<path class="st0" d="M110.5,18.8c-0.7-0.6-1.5-1-2.4-1.4c-1.8-0.8-3.7-1.2-5.9-1.2c-3,0-5.6,0.7-8,2.1c-2.3,1.4-4.1,3.4-5.5,5.8
			c-1.3,2.5-2,5.3-2,8.5s0.7,6,2,8.5s3.1,4.4,5.5,5.8c2.3,1.4,5,2.1,8,2.1c2.2,0,4.1-0.4,5.9-1.3c0.9-0.5,1.8-1,2.5-1.7v2.3h9.8V1.2
			h-9.9V18.8z M107.7,39.1c-1,0.6-2.3,0.9-3.7,0.9c-1.3,0-2.6-0.3-3.6-1c-1.1-0.7-1.9-1.5-2.5-2.7c-0.6-1.1-0.9-2.4-0.9-3.8
			s0.3-2.7,0.9-3.8c0.6-1.1,1.5-2,2.5-2.7c1.1-0.7,2.3-1,3.7-1c1.4,0,2.6,0.3,3.7,1s1.9,1.5,2.5,2.6s0.9,2.4,0.9,3.9
			s-0.3,2.8-0.9,3.9C109.6,37.6,108.7,38.5,107.7,39.1z"/>
		<path class="st0" d="M147.4,19.4c-0.9-0.8-1.8-1.5-3-2c-1.7-0.8-3.6-1.2-5.8-1.2c-2.9,0-5.5,0.7-7.8,2.1s-4.1,3.4-5.4,5.8
			c-1.3,2.5-2,5.3-2,8.5s0.7,6,2,8.5s3.1,4.4,5.4,5.8s4.9,2.1,7.8,2.1c2.1,0,4.1-0.4,5.8-1.2c1.1-0.5,2.1-1.2,2.9-2v2.6h9.8V16.8
			h-9.8v2.6H147.4z M140.7,40c-1.3,0-2.6-0.3-3.6-1c-1.1-0.7-1.9-1.5-2.5-2.7c-0.6-1.1-0.9-2.4-0.9-3.8c0-1.5,0.3-2.8,0.9-3.9
			c0.6-1.1,1.5-2,2.5-2.6c1.1-0.6,2.3-0.9,3.7-0.9s2.6,0.3,3.7,0.9c1.1,0.6,1.9,1.5,2.5,2.6s0.9,2.4,0.9,3.9c0,2.2-0.7,4-2,5.4
			C144.6,39.3,142.8,40,140.7,40z"/>
		<polygon class="st0" points="183.8,25.2 183.8,16.8 176.7,16.8 176.7,3.7 166.7,3.7 166.7,16.8 159.6,16.8 159.6,25.2 166.7,25.2 
			166.7,48.4 176.7,48.4 176.7,25.2 		"/>
		<path class="st0" d="M207.5,19.4c-0.9-0.8-1.8-1.5-3-2c-1.7-0.8-3.6-1.2-5.8-1.2c-2.9,0-5.5,0.7-7.8,2.1s-4.1,3.4-5.4,5.8
			c-1.3,2.5-2,5.3-2,8.5s0.7,6,2,8.5s3.1,4.4,5.4,5.8s4.9,2.1,7.8,2.1c2.1,0,4.1-0.4,5.8-1.2c1.1-0.5,2.1-1.2,2.9-2v2.6h9.8V16.8
			h-9.8v2.6H207.5z M200.8,40c-1.3,0-2.6-0.3-3.6-1c-1.1-0.7-1.9-1.5-2.5-2.7c-0.6-1.1-0.9-2.4-0.9-3.8c0-1.5,0.3-2.8,0.9-3.9
			c0.6-1.1,1.5-2,2.5-2.6c1.1-0.6,2.3-0.9,3.7-0.9s2.6,0.3,3.7,0.9c1.1,0.6,1.9,1.5,2.5,2.6s0.9,2.4,0.9,3.9c0,2.2-0.7,4-2,5.4
			C204.6,39.3,202.9,40,200.8,40z"/>
		<path class="st0" d="M232.2,24.4c0.6-0.3,1.4-0.5,2.5-0.5c1.2,0,2.4,0.2,3.6,0.7c1.2,0.5,2.3,1.3,3.3,2.5l5.7-5.7
			c-1.4-1.8-3.3-3.2-5.6-4.1s-4.8-1.4-7.4-1.4c-2.6,0-4.8,0.4-6.7,1.3s-3.4,2-4.4,3.5s-1.6,3.3-1.6,5.3c0,1.9,0.4,3.5,1.1,4.7
			c0.7,1.2,1.7,2.2,2.9,2.9s2.4,1.2,3.7,1.6s2.5,0.7,3.7,1.1s2.1,0.7,2.9,1.1c0.8,0.4,1.1,1,1.1,1.8c0,0.6-0.3,1.1-0.9,1.4
			c-0.6,0.3-1.5,0.5-2.7,0.5c-1.7,0-3.2-0.3-4.7-0.9s-2.7-1.5-3.7-2.6l-5.7,5.7c1.1,1.2,2.4,2.2,3.9,3.1c1.5,0.9,3.2,1.6,5,2
			c1.8,0.5,3.6,0.7,5.5,0.7c3.9,0,7.1-0.9,9.4-2.7c2.3-1.8,3.5-4.3,3.5-7.3c0-2-0.4-3.6-1.1-4.8c-0.7-1.2-1.7-2.2-2.9-3
			c-1.2-0.7-2.4-1.3-3.7-1.8c-1.3-0.4-2.5-0.8-3.7-1.1c-1.2-0.3-2.1-0.7-2.9-1c-0.7-0.4-1.1-0.9-1.1-1.6
			C231.3,25.2,231.6,24.7,232.2,24.4z"/>
		<path class="st0" d="M276.3,18.3c-2.3-1.4-5-2.1-8-2.1c-2.1,0-4.1,0.4-5.8,1.3c-0.9,0.4-1.7,0.9-2.4,1.5v-2.2h-9.9v44.9h9.8V46.2
			c0.8,0.6,1.6,1.1,2.5,1.6c1.8,0.8,3.7,1.2,5.8,1.2c3,0,5.6-0.7,8-2.1c2.3-1.4,4.1-3.4,5.5-5.8c1.3-2.5,2-5.3,2-8.5s-0.7-6-2-8.5
			C280.4,21.7,278.6,19.7,276.3,18.3z M272.7,36.4c-0.6,1.1-1.4,2-2.5,2.7s-2.3,1-3.7,1c-1.3,0-2.6-0.3-3.6-1s-1.9-1.5-2.5-2.7
			c-0.6-1.1-0.9-2.4-0.9-3.8c0-1.5,0.3-2.8,0.9-3.9s1.4-2,2.5-2.6s2.3-0.9,3.7-0.9s2.6,0.3,3.7,0.9s1.9,1.5,2.5,2.6s0.9,2.4,0.9,3.9
			C273.6,34,273.3,35.3,272.7,36.4z"/>
		<path class="st0" d="M311.8,17.7c-1.9-1-4-1.5-6.5-1.5c-2.4,0-4.6,0.5-6.4,1.5c-0.8,0.4-1.5,0.9-2.1,1.5v-18h-9.9v47.2h9.9v-18
			c0-1.1,0.2-2,0.7-2.9c0.5-0.8,1.1-1.5,2-2c0.8-0.5,1.8-0.7,2.9-0.7c1.6,0,2.8,0.5,3.9,1.5c1,1,1.5,2.4,1.5,4v18h9.9V28.2
			c0-2.4-0.5-4.5-1.5-6.3C315.1,20.1,313.7,18.7,311.8,17.7z"/>
		<path class="st0" d="M345.2,18.1c-2.4-1.3-5.1-2-8.3-2c-3.2,0-6.1,0.7-8.6,2.1c-2.6,1.4-4.6,3.4-6.1,5.9s-2.2,5.3-2.2,8.5
			c0,3.2,0.8,6,2.3,8.5s3.6,4.5,6.3,5.9s5.7,2.1,9.1,2.1c2.6,0,5.1-0.5,7.3-1.4c2.2-0.9,4.1-2.3,5.7-4.1l-5.5-5.5
			c-1,1.1-2.1,1.9-3.3,2.4c-1.3,0.5-2.7,0.8-4.2,0.8c-1.7,0-3.2-0.4-4.4-1.1s-2.2-1.7-2.9-3.1c-0.2-0.4-0.4-0.9-0.5-1.4l22.6-0.1
			c0.2-0.8,0.3-1.5,0.4-2.2c0.1-0.6,0.1-1.2,0.1-1.8c0-3.1-0.7-5.8-2-8.2C349.5,21.3,347.6,19.4,345.2,18.1z M333,24.7
			c1.1-0.7,2.5-1.1,4.1-1.1c1.5,0,2.7,0.3,3.7,0.9s1.8,1.5,2.3,2.7c0.2,0.5,0.4,1.1,0.5,1.7h-13.8c0.1-0.5,0.3-0.9,0.5-1.3
			C330.9,26.5,331.8,25.5,333,24.7z"/>
		<path class="st0" d="M377.8,16.8c-1.1-0.5-2.5-0.7-4-0.7c-3.5,0-6.2,1-8.1,3.1v-2.4h-9.9v31.6h9.9V31c0-2,0.5-3.6,1.5-4.6
			s2.3-1.5,3.9-1.5c0.8,0,1.6,0.1,2.2,0.4s1.2,0.6,1.6,1.1l5.9-7.5C380,18,379,17.3,377.8,16.8z"/>
		<path class="st0" d="M409.4,23.7c-1.4-2.4-3.2-4.2-5.6-5.6c-2.4-1.3-5.1-2-8.3-2c-3.2,0-6.1,0.7-8.6,2.1s-4.6,3.4-6.1,5.9
			s-2.2,5.3-2.2,8.5c0,3.2,0.8,6,2.3,8.5s3.6,4.5,6.3,5.9s5.7,2.1,9.1,2.1c2.6,0,5.1-0.5,7.3-1.4c2.2-0.9,4.1-2.3,5.7-4.1l-5.5-5.5
			c-1,1.1-2.1,1.9-3.3,2.4c-1.3,0.5-2.7,0.8-4.2,0.8c-1.7,0-3.2-0.4-4.4-1.1c-1.2-0.7-2.2-1.7-2.9-3.1c-0.2-0.4-0.4-0.9-0.5-1.4
			l22.6-0.1c0.2-0.8,0.3-1.5,0.4-2.2c0.1-0.6,0.1-1.2,0.1-1.8C411.4,28.8,410.8,26,409.4,23.7z M391.5,24.7c1.1-0.7,2.5-1.1,4.1-1.1
			c1.5,0,2.7,0.3,3.7,0.9s1.8,1.5,2.3,2.7c0.2,0.5,0.4,1.1,0.5,1.7h-13.8c0.1-0.5,0.3-0.9,0.5-1.3C389.5,26.5,390.4,25.5,391.5,24.7
			z"/>
	</g>
</g>
</svg>
